<?xml version="1.0" encoding="utf-8"?>
<!-- Svg Vector Icons : http://www.onlinewebfonts.com/icon -->
<!DOCTYPE svg PUBLIC "-//W3C//DTD SVG 1.1//EN" "http://www.w3.org/Graphics/SVG/1.1/DTD/svg11.dtd">
<svg version="1.1" xmlns="http://www.w3.org/2000/svg" xmlns:xlink="http://www.w3.org/1999/xlink" x="0px" y="0px" viewBox="0 0 1000 1000" enable-background="new 0 0 1000 1000" xml:space="preserve">
<metadata> Svg Vector Icons : http://www.onlinewebfonts.com/icon </metadata>
<g><g transform="translate(0.000000,511.000000) scale(0.100000,-0.100000)"><path d="M4261.5,2971.2c-44-44-47.9-59.4-36.4-141.7c19.2-139.8,134.1-547.7,222.2-779.5c42.1-113,70.9-210.7,63.2-218.3c-9.6-5.7-101.5-40.2-206.8-74.7c-312.2-101.5-708.6-262.4-1015-413.7c-273.9-134.1-827.3-452-938.4-540l-51.7-42.1l-147.5,122.6c-291.1,241.3-632,444.3-1103.1,653c-339,149.4-737.3,296.8-804.3,296.8c-63.2,0-143.6-80.4-143.6-141.7c0-68.9,118.7-369.6,266.2-672.2C521.3,705.6,755,345.6,927.3,157.9l122.6-132.2L904.3-148.5C632.4-472.2,366.2-922.2,188.1-1358.9c-97.7-239.4-105.3-287.3-49.8-346.6c67-72.8,113-69,373.4,24.9c695.2,252.8,1319.5,584.1,1641.2,869.5c59.4,53.6,113,97.7,118.7,97.7c5.7,0,120.7-72.8,254.7-160.9c421.3-273.8,827.3-480.7,1327.2-676c120.6-47.9,222.2-88.1,224.1-90c1.9-1.9-28.7-90-70.9-197.2c-93.8-237.5-206.8-624.3-222.2-762.2c-11.5-91.9-7.7-107.2,36.4-151.3c26.8-26.8,70.9-49.8,97.7-49.8c141.7,0,1068.6,463.5,1507.2,752.6l103.4,69l181.9-19.2c310.2-32.6,913.5-24.9,1196.9,19.2c653,97.7,1294.6,342.8,1823.2,697.1C9411.2-828.4,9939.8-207.9,9897.6,81.3c-28.7,180-312.2,582.2-612.8,865.6C8492,1693.8,7427.2,2099.8,6259,2101.7c-141.7,0-178.1,5.7-210.7,36.4c-61.3,53.6-363.9,252.8-557.3,365.8C5132.9,2710.7,4453,3021,4357.3,3021C4332.4,3021,4290.2,2998,4261.5,2971.2z M4935.6,2448.3c352.4-174.3,668.4-362,896.3-530.5l157-116.8l363.9-11.5c452-15.3,982.4-91.9,972.9-139.8c-1.9-9.6-40.2-78.5-84.2-151.3C7080.5,1234.2,6954.1,899,6887.1,560c-47.9-235.6-47.9-789-1.9-1038c61.3-333.2,191.5-683.7,354.3-951.8c44-70.8,80.4-136,80.4-145.5c0-17.2-329.4-86.2-555.4-116.8c-216.4-28.7-733.5-26.8-1057.1,1.9l-262.4,24.9l-235.6-153.2c-348.5-226-1005.4-574.5-1051.4-557.3c-19.2,7.7,114.9,392.6,208.7,607.1c116.8,262.4,107.2,321.7-57.5,375.4c-614.7,201.1-1361.6,576.4-1834.7,925c-216.4,158.9-229.8,157-427.1-26.8c-279.6-258.5-723.9-522.8-1269.7-752.6c-128.3-53.6-239.4-97.7-245.1-97.7c-5.8,0,26.8,76.6,74.7,170.5c203,404.1,411.7,708.6,674.1,982.4c216.4,226,216.4,222.1-47.9,488.3c-128.3,128.3-252.8,275.8-327.5,388.8c-136,206.8-394.5,714.3-367.7,723.9c26.8,9.6,543.9-216.4,768-335.1C1601.4,918.2,1858.1,742,2040,569.6c88.1-82.3,181.9-157,208.8-162.8c38.3-9.6,84.3,13.4,229.8,113C3118.2,956.5,3847.9,1305,4566,1517.6c383,114.9,386.8,118.7,249,444.3c-88.1,204.9-214.5,572.6-214.5,618.6c0,11.5,5.7,19.2,15.3,19.2C4623.5,2599.6,4767.1,2530.7,4935.6,2448.3z M7863.8,1496.5c388.8-155.1,819.7-417.5,1133.7-693.3c206.8-181.9,455.8-475,543.9-637.7c55.5-107.2,59.4-120.7,36.4-176.2c-74.7-178.1-496-628.2-810.1-863.7c-191.5-143.6-442.4-300.6-628.1-396.4c-151.3-76.6-461.5-208.8-488.3-208.8c-28.7,0-218.3,319.8-293,492.2C7021.2-204.1,7095.9,719,7553.6,1418c53.6,80.4,105.3,147.5,116.8,147.5C7680,1565.5,7768.1,1534.8,7863.8,1496.5z"/><path d="M8095.5,619.4c-193.4-84.3-239.4-340.9-88.1-492.2c214.5-216.4,566.9-23,511.3,279.6C8484.3,586.9,8267.9,696,8095.5,619.4z"/></g></g>
</svg>